<svg width="472" height="472" viewBox="0 0 472 472" fill="none" xmlns="http://www.w3.org/2000/svg">
  <path d="M185.814 17.9727L198.763 45.8135L314.012 53.583L387.175 181.133L435.102 174.438L358.039 273.072L363.867 337.171L334.73 359.185L330.847 394.796L285.524 445.945L236.093 454.028L199.412 346.883L214.95 307.388L183.873 251.059L193.585 216.096L148.262 207.032L88.6943 219.333L36.8984 162.357V113.796L104.882 26.3896L185.813 17.9717L185.814 17.9727ZM416.156 349.872L396.012 397.945L379.986 393.823C381.193 367.524 381.884 354.896 392.808 332.476L405.168 332.018L418.444 312.788L416.156 349.872ZM252.301 276.844L259.406 286.473L282.812 254.754L289.291 263.533L242.688 326.688L236 372L269.438 362.938L323.146 290.154L282.812 235.496L252.301 276.844ZM301.203 247.391L327.953 283.641L343 263.25L316.25 227L301.203 247.391ZM273.804 95C269.744 95 265.934 95.7046 262.375 97.1143C258.816 98.4896 255.702 100.742 253.032 103.871C250.363 106.965 248.249 111.005 246.692 115.99C245.191 120.941 244.44 126.976 244.44 134.093C244.44 141.176 245.191 147.141 246.692 151.989C248.249 156.837 250.363 160.739 253.032 163.696C255.702 166.653 258.816 168.785 262.375 170.092C265.934 171.364 269.744 172 273.804 172C277.863 172 281.673 171.329 285.232 169.988C288.791 168.613 291.878 166.43 294.491 163.438C297.105 160.413 299.163 156.493 300.664 151.68C302.221 146.866 303 141.004 303 134.093C303 126.873 302.221 120.787 300.664 115.836C299.163 110.85 297.105 106.81 294.491 103.716C291.878 100.622 288.791 98.4034 285.232 97.0625C281.673 95.6872 277.863 95 273.804 95ZM172.784 95.1035C171.06 95.1035 169.003 95.3091 166.611 95.7217C164.276 96.0999 161.857 96.822 159.354 97.8877C156.852 98.9192 154.377 100.347 151.93 102.169C149.538 103.957 147.369 106.261 145.423 109.08C143.532 111.865 141.975 115.217 140.752 119.137C139.584 123.056 139 127.647 139 132.907C139 138.168 139.501 142.775 140.502 146.729C141.503 150.683 142.837 154.087 144.506 156.94C146.174 159.76 148.093 162.115 150.262 164.006C152.431 165.862 154.683 167.341 157.019 168.441C159.354 169.507 161.662 170.264 163.942 170.711C166.278 171.158 168.446 171.381 170.448 171.381C172.283 171.346 174.175 171.243 176.121 171.071C177.789 170.899 179.681 170.642 181.794 170.298C183.907 169.988 186.048 169.524 188.217 168.905C188.106 168.665 187.994 168.2 187.883 167.513C187.772 166.825 187.633 166.017 187.466 165.089C187.355 164.126 187.216 163.112 187.049 162.046C186.938 160.946 186.826 159.897 186.715 158.9C186.604 157.869 186.493 156.94 186.382 156.115C186.326 155.256 186.298 154.602 186.298 154.155C186.298 152.161 186.354 150.184 186.465 148.225C186.632 146.23 186.826 144.339 187.049 142.551C187.271 140.729 187.522 139.027 187.8 137.445C188.133 135.864 188.439 134.454 188.717 133.217L168.863 133.423C169.975 137.892 170.81 142.328 171.366 146.729C171.978 151.129 172.339 155.565 172.45 160.035C170.504 159.657 168.78 158.986 167.278 158.023C165.833 157.061 164.554 155.926 163.441 154.619C162.385 153.278 161.467 151.834 160.688 150.287C159.966 148.74 159.354 147.193 158.854 145.646C157.741 142.001 157.101 137.995 156.935 133.629C157.101 128.575 157.88 124.07 159.271 120.116C159.827 118.432 160.55 116.781 161.439 115.165C162.385 113.549 163.497 112.105 164.776 110.833C166.111 109.561 167.668 108.546 169.447 107.79C171.282 106.999 173.368 106.604 175.704 106.604C176.927 106.605 178.206 106.724 179.541 106.965C180.931 107.171 182.405 107.516 183.962 107.997L185.631 97.6299C184.519 97.011 183.211 96.5303 181.71 96.1865C180.264 95.8427 178.874 95.584 177.539 95.4121C175.982 95.2402 174.397 95.1379 172.784 95.1035ZM241.021 96.1348C232.846 96.4442 224.643 96.5986 216.412 96.5986C212.964 96.5986 209.544 96.5649 206.151 96.4961C202.759 96.4273 199.339 96.3404 195.892 96.2373L196.392 107.584C200.451 107.24 204.4 106.948 208.237 106.707C212.13 106.466 215.995 106.295 219.832 106.191C216.328 117.194 212.158 127.922 207.319 138.374C202.481 148.826 197.198 159.159 191.47 169.37C193.416 169.301 195.391 169.267 197.393 169.267H203.398C209.46 169.267 215.383 169.353 221.167 169.524C226.951 169.662 232.762 169.92 238.602 170.298L238.268 158.281C235.265 158.453 232.289 158.591 229.342 158.694C226.45 158.763 223.502 158.797 220.499 158.797C219.721 158.797 218.97 158.814 218.247 158.849C217.58 158.883 216.912 158.866 216.245 158.797C219.248 148.276 222.863 137.824 227.09 127.44C231.372 117.057 236.015 106.621 241.021 96.1348ZM273.804 104.799C275.25 104.799 276.613 105.315 277.892 106.347C279.17 107.378 280.282 109.063 281.228 111.4C282.229 113.704 283.007 116.713 283.563 120.426C284.12 124.139 284.397 128.695 284.397 134.093C284.397 139.25 284.12 143.618 283.563 147.193C283.007 150.769 282.229 153.674 281.228 155.909C280.282 158.109 279.17 159.708 277.892 160.705C276.613 161.668 275.25 162.149 273.804 162.149C272.302 162.149 270.884 161.685 269.55 160.757C268.271 159.829 267.13 158.281 266.129 156.115C265.184 153.915 264.433 151.027 263.877 147.451C263.321 143.841 263.043 139.388 263.043 134.093C263.043 128.764 263.321 124.243 263.877 120.529C264.433 116.782 265.184 113.756 266.129 111.452C267.13 109.114 268.271 107.429 269.55 106.397C270.884 105.332 272.302 104.799 273.804 104.799Z" fill="#6C0B0B"/>
</svg>
