<svg xmlns="http://www.w3.org/2000/svg" xmlns:xlink="http://www.w3.org/1999/xlink" xmlns:xodm="http://www.corel.com/coreldraw/odm/2003" xml:space="preserve" width="7.87402in" height="5.80282in" version="1.1" style="shape-rendering:geometricPrecision; text-rendering:geometricPrecision; image-rendering:optimizeQuality; fill-rule:evenodd; clip-rule:evenodd" viewBox="0 0 7872.23 5801.51">
 <defs>
  <style type="text/css">
   <![CDATA[
   .str0 {stroke:#2828FF;stroke-width:111.09;stroke-miterlimit:22.9256}
   .fil0 {fill:none}
   .fil3 {fill:#14DCFF}
   .fil4 {fill:#2828FF}
   .fil2 {fill:#14DCFF;fill-rule:nonzero}
   .fil1 {fill:#2828FF;fill-rule:nonzero}
   ]]>
  </style>
 </defs>
  <g id="Layer_x0020_1">
  <metadata id="CorelCorpID_0Corel-Layer"/>
    <path class="fil0 str0" d="M1360.21 742.43c-18.48,-4.3 -56.11,-24.43 -79.66,-32.21 -119.93,-39.63 -262.83,-45.73 -382.63,1.74 -14.22,5.63 -25.77,9.65 -39.44,15.2 -57.2,23.2 -127.6,68 -171.38,112.18l-78.69 87.81c-61.37,81.57 -100.2,178.38 -114.61,280.85 -2.52,17.88 -4.1,42.57 -5.05,70.81l0 261.17 0 3.81 0 2029.43c-0.16,128.91 47.08,242.25 114.47,338.22 60.53,86.21 150.41,160.58 248.59,201.48 125.21,52.15 254.82,67.11 386.15,35.34 220.67,-53.38 400.24,-228.8 451.04,-451.71 15.46,-67.87 17.17,-126.69 17.17,-209.19 0,-300.94 0,-601.89 0,-902.83l95.63 91.68c7.12,6.59 12.52,12.59 19.48,19.55l362.88 355.16c8.09,8.19 13.01,10.91 20.85,18.17 13.23,12.23 24.79,24.86 37.69,37.76 13.21,13.21 24.53,24.51 37.72,37.73 13.91,13.93 26.3,23.7 40.33,37.72 51.01,51.04 101.17,98.59 152.17,149.61l135.3 130.05c7.12,6.59 12.53,12.59 19.48,19.55 51.01,51.02 101.15,98.58 152.17,149.6 6.38,6.38 11.62,12.37 18.23,18.2 8.31,7.32 12.57,9.92 20.79,18.22l115.76 113.19c50.99,51 101.19,98.52 152.17,149.6 53.13,53.24 106.19,94.61 168.67,135.7 62.82,41.31 139.98,70.87 214.99,86.78 38.44,8.15 78.43,12.62 118.65,13.64l35.98 0c41.44,-1.05 82.73,-5.68 122.45,-13.65 155.37,-31.19 278.22,-113.94 370.03,-236.13 54.59,-72.65 95.34,-170.71 111.87,-267.97 12.16,-71.52 7.79,-146.53 7.79,-221.17 29.52,33.97 52.99,73.3 82.67,107.25 40.08,45.86 80.38,90.81 123.49,134.07 32.19,32.3 67.41,60.7 101.48,91.04 153.67,136.88 383.7,254.92 577.8,319.71 101.11,33.75 206.47,56.61 311.94,70.46 80.58,10.59 161.25,13.78 243.76,13.78 65.2,0 64.33,-2.29 122.31,-5.16 112.27,-5.55 221.8,-27.67 327.72,-57.29 95.57,-26.73 192.72,-63.05 280.04,-104.97 114.38,-54.92 215.45,-117.92 317.91,-194.59 12.07,-9.04 22.9,-17.97 34.77,-27.67 12.78,-10.44 22.94,-18.89 35.22,-29.82 6.8,-6.06 9.96,-7.3 16.88,-14.34l50.74 -45.52c19.42,-17.96 46.45,-44.22 63.68,-63.79l89.29 -103.23c10.35,-13.17 18.56,-22.94 28.63,-36.41 57.32,-76.68 104.65,-150.67 151.16,-233.89 30.59,-54.75 57.45,-112.84 81.88,-173.09 20.1,-49.58 50.66,-119.43 54.22,-179.44l0 -21.84 -0.13 -1.94c-7.54,-96.26 -49.84,-201.9 -103.93,-278.52 -26.06,-36.92 -57.97,-70.82 -93.03,-99.47 -166.04,-135.65 -396.98,-145.69 -583.19,-38.32 -26.79,15.45 -52.5,33.68 -77.08,53 -12.76,10.04 -22.91,21.29 -34.49,30.54 -17.94,14.32 -30.41,30.7 -46.61,47.04 -6.16,6.21 -9.79,11.51 -15.4,18.43l-40.23 53.41c-23.79,31.84 -40.35,66.39 -58.56,102.74 -28.87,57.65 -18.41,46.86 -59.55,101.75l-44.72 51.55c-11.01,10.95 -19.99,20.51 -31.17,31.27 -159.1,153.17 -409.13,220.3 -632.19,172.98 -97.78,-20.74 -183.82,-61.51 -264.92,-117.5 -14.08,-9.71 -24,-17.67 -36.86,-28.17l-80.62 -78.08c-25.49,-28.68 -49.06,-57.71 -69.76,-91.53 -34.47,-56.3 -62.52,-113.41 -80.64,-176.93 -28.71,-100.55 -38.85,-227.96 -16.51,-339.54 7.6,-37.92 17.03,-68.63 28.07,-102.02 15.31,-46.3 36.6,-87.97 60.99,-128.93 21.66,-36.37 46.81,-68.49 73.85,-100.46 4.03,-4.77 3.67,-5.4 7.95,-10.26 9.93,-11.27 21.63,-21.67 32.5,-32.54 210.74,-210.78 546.88,-258.9 813.56,-125.54 29.27,14.64 54.38,29.38 80.65,46.82 45.63,30.3 102.07,76.59 135.26,119.69l27.03 38.01c20.98,31.35 42.32,63.38 67.28,91.42 5.86,6.58 9.37,12.04 15.54,18.28 19.71,19.93 44.37,47.39 65.93,64.15 7.09,5.5 9.96,9.31 16.69,14.53 154.32,119.59 349.35,195.51 564.02,142.59 78.52,-19.36 154.14,-54.95 209.29,-108.09 34.56,-33.3 62.06,-66.99 86.66,-108.46 49.25,-83.04 76.4,-219.81 39.74,-310.77 -12.06,-29.91 -24.5,-62.88 -38.68,-91.4 -28.18,-56.67 -54.58,-113.28 -87.29,-167.67 -39.25,-65.28 -132.05,-203.65 -187.78,-259.7l-31.08 -33.95c-20.16,-24.11 -74.21,-80.55 -95.51,-97 -24.5,-18.92 -56.4,-50.89 -85.09,-73.62l-91.44 -69.86c-12.57,-9.4 -23.44,-16.85 -36.73,-25.7 -209.28,-139.36 -440.77,-231.71 -691.27,-273.88 -72.93,-12.27 -152.32,-21.17 -236.36,-21.17 0,-17.82 1.42,-27.95 2.55,-41.86 1.12,-13.73 -2.57,-24.47 -2.5,-41.45 0.24,-53.96 -20.13,-130.96 -41.6,-179.55 -4.7,-10.63 -9.05,-19.89 -13.45,-30.78 -19.11,-47.4 -56.22,-94.11 -87.69,-133.45 -28.56,-35.68 -80.23,-77.13 -118.49,-102.65 -19.05,-12.7 -35.76,-22.05 -56.18,-32.26 -60.55,-30.25 -133.25,-54.03 -205.28,-60.07 -12.49,-1.05 -25.74,-1.82 -39.52,-2.38l-222.25 0 -3.78 0 -3024.16 0c-83.61,1.96 -193.89,38.67 -263.42,83.75 -18.76,12.15 -35.5,22.8 -52.55,35.91 -41.79,32.11 -79.66,70.19 -111.11,112.62l-26.22 38.82c-45.3,71.94 -81.26,160.47 -86.36,246.67 -2.29,38.7 -3.51,86.83 0.24,127.26 1.29,13.89 4.98,26.41 4.98,41.86zm531.76 474.48l1109.86 0 0 1012.96 -1109.86 -1012.96z"/>
    <path class="fil1" d="M1057.25 4746.17l-435.45 -355.29 -286.01 0 0 658.13 242.47 0 0 -357.27 423.58 357.27 296.9 0 0 -658.13 -241.48 0 0 355.29zm1039.15 -355.29l-190.02 192.98 -185.07 -192.98 -333.51 0 392.9 392.9 0 265.23 259.29 0 0 -269.19 385.97 -388.94 -329.56 0z"/>
    <path class="fil1" d="M2937.6 5066.82c363.2,0.99 531.45,-111.83 531.45,-323.62l0 -46.52c0,-211.79 -168.24,-322.63 -531.45,-323.62 -363.21,0.99 -531.45,111.83 -531.45,323.62l0 46.52c0,211.79 168.24,324.61 531.45,323.62zm0 -224.65c-181.11,0 -262.26,-27.71 -262.26,-116.78l0 -10.89c0,-89.07 81.15,-116.78 262.26,-116.78 181.11,0 262.26,26.72 262.26,116.78l0 10.89c0,89.07 -81.15,116.78 -262.26,116.78z"/>
    <polygon class="fil1" points="3527.44,4390.88 3527.44,4612.56 3799.6,4612.56 3799.6,5049 4058.89,5049 4058.89,4612.56 4331.05,4612.56 4331.05,4390.88 "/>
    <path class="fil1" d="M4831.81 5066.82c367.16,0 455.24,-84.12 456.24,-236.53l0 -2.97c0,-126.68 -78.18,-188.04 -263.25,-196.94l-326.59 -13.86c-41.57,-1.98 -54.43,-7.92 -54.43,-24.74l0 -0.99c0,-18.8 25.73,-27.71 169.23,-27.71 151.42,0 184.08,11.88 184.08,38.6l0 9.9 267.21 0 0 -11.88c0,-129.65 -83.13,-223.67 -441.39,-223.67 -339.45,0 -435.45,83.13 -436.44,224.65l0 1.98c0,145.48 112.82,199.91 278.1,206.84l310.75 12.86c39.59,1.98 55.42,9.9 55.42,24.74l0 2.97c0,19.79 -22.76,29.69 -198.92,29.69 -153.4,0 -186.06,-12.86 -186.06,-42.55l0 -9.9 -267.21 0 0 10.89c0,128.66 66.31,228.61 453.27,228.61zm1052.01 -2.97c379.04,-0.99 511.66,-104.9 511.66,-309.76l0 -6.93 -269.19 0 0 2.97c0,61.36 -75.22,89.07 -242.47,89.07 -160.33,0 -242.47,-27.71 -242.47,-113.81l0 -10.89c0,-87.09 82.14,-113.81 242.47,-113.81 167.25,0 242.47,27.71 242.47,89.07l0 2.97 269.19 0 0 -6.93c-3.96,-204.86 -132.62,-310.76 -511.66,-309.77 -379.04,0.99 -511.66,110.84 -511.66,320.65l0 46.52c0,209.81 132.62,321.64 511.66,320.65zm1138.12 2.97c363.2,0.99 531.45,-111.83 531.45,-323.62l0 -46.52c0,-211.79 -168.24,-322.63 -531.45,-323.62 -363.21,0.99 -531.45,111.83 -531.45,323.62l0 46.52c0,211.79 168.24,324.61 531.45,323.62zm0 -224.65c-181.11,0 -262.26,-27.71 -262.26,-116.78l0 -10.89c0,-89.07 81.15,-116.78 262.26,-116.78 181.11,0 262.26,26.72 262.26,116.78l0 10.89c0,89.07 -81.15,116.78 -262.26,116.78z"/>
    <path class="fil2" d="M1623.34 5801.51c-19.71,0 -37.96,-3.29 -54.76,-9.86 -17.16,-6.57 -31.76,-15.7 -44.17,-27.74 -12.41,-11.68 -21.9,-25.55 -28.84,-41.61 -6.94,-16.06 -10.58,-33.58 -10.58,-52.93 0,-19.35 3.65,-36.87 10.58,-52.93 6.94,-16.06 16.43,-29.93 29.2,-41.98 12.41,-11.68 27.01,-20.81 43.81,-27.38 16.79,-6.57 35.04,-9.86 55.12,-9.86 22.27,0 42.34,4.02 60.23,11.68 17.89,7.67 32.85,18.98 44.9,33.58l-37.96 35.04c-17.52,-20.08 -39.06,-29.93 -64.25,-29.93 -16.06,0 -30.3,3.29 -42.34,10.22 -12.41,6.94 -21.9,16.79 -28.84,28.84 -6.94,12.41 -10.58,26.65 -10.58,42.71 0,16.06 3.65,30.3 10.58,42.34 6.94,12.41 16.43,21.9 28.84,28.84 12.04,6.94 26.28,10.58 42.34,10.58 25.19,0 46.73,-10.22 64.25,-30.3l37.96 35.04c-12.04,14.97 -27.01,26.28 -44.9,33.95 -17.89,7.67 -38.33,11.68 -60.59,11.68z"/>
    <path class="fil2" d="M1877.75 5801.51c-20.08,0 -38.7,-3.29 -55.49,-9.86 -17.15,-6.57 -31.76,-15.7 -44.53,-27.74 -12.78,-12.05 -22.27,-25.92 -29.2,-41.98 -6.94,-16.06 -10.58,-33.58 -10.58,-52.56 0,-18.98 3.65,-36.5 10.58,-52.57 6.94,-16.06 16.43,-29.93 29.2,-41.98 12.78,-12.04 27.38,-21.17 44.53,-27.74 16.79,-6.57 35.41,-9.86 55.49,-9.86 20.07,0 38.69,3.29 55.85,9.86 16.79,6.57 31.39,15.7 44.17,27.38 12.78,12.04 22.63,25.92 29.57,41.98 6.94,16.43 10.22,33.95 10.22,52.93 0,18.98 -3.28,36.5 -10.22,52.56 -6.94,16.43 -16.79,30.3 -29.57,41.98 -12.78,12.04 -27.38,21.17 -44.17,27.74 -17.15,6.57 -35.77,9.86 -55.85,9.86zm0 -50.37c14.97,0 28.84,-3.65 40.88,-10.58 12.05,-6.94 21.54,-16.43 28.47,-28.84 6.94,-12.04 10.58,-26.28 10.58,-42.34 0,-16.06 -3.65,-30.3 -10.58,-42.71 -6.94,-12.04 -16.43,-21.9 -28.47,-28.84 -12.04,-6.94 -25.92,-10.22 -40.88,-10.22 -14.97,0 -28.47,3.29 -40.52,10.22 -12.05,6.94 -21.9,16.79 -28.84,28.84 -6.94,12.41 -10.58,26.65 -10.58,42.71 0,16.06 3.65,30.3 10.58,42.34 6.94,12.41 16.79,21.9 28.84,28.84 12.04,6.94 25.55,10.58 40.52,10.58zm184.34 45.99l0 -255.52 48.91 0 127.03 155.5 0 -155.5 58.4 0 0 255.52 -48.55 0 -127.4 -155.5 0 155.5 -58.4 0zm378.9 4.38c-20.44,0 -40.15,-2.55 -58.77,-8.4 -18.61,-5.48 -33.95,-12.41 -45.26,-21.17l20.07 -44.53c10.59,7.67 23.73,14.24 38.7,18.98 14.97,5.11 30.3,7.67 45.63,7.67 17.52,0 30.3,-2.55 37.96,-7.67 7.66,-5.11 11.31,-11.68 11.31,-19.71 0,-6.94 -2.55,-12.41 -8.03,-16.43 -5.48,-4.01 -12.41,-7.3 -21.17,-9.86 -9.12,-2.55 -18.61,-4.74 -29.2,-7.3 -10.58,-2.19 -20.81,-5.11 -31.39,-8.4 -10.59,-3.29 -20.44,-7.67 -29.2,-13.14 -9.13,-5.48 -16.06,-12.41 -21.54,-21.54 -5.48,-8.76 -8.03,-19.71 -8.03,-33.22 0,-14.6 4.01,-28.11 12.04,-40.15 7.67,-12.04 19.71,-21.53 35.78,-28.84 15.69,-6.94 35.77,-10.59 59.86,-10.59 16.06,0 31.76,1.83 47.45,5.84 15.69,4.01 29.2,9.49 41.25,16.79l-18.25 44.9c-12.04,-6.94 -23.73,-12.04 -35.77,-15.33 -12.04,-3.29 -23.73,-4.75 -35.04,-4.75 -17.52,0 -29.93,2.92 -37.23,8.4 -7.67,5.84 -11.32,12.78 -11.32,20.81 0,6.57 2.55,11.68 8.03,15.7 5.48,4.01 12.41,7.3 21.17,9.86 8.76,2.55 18.62,5.11 29.2,7.3 10.58,2.19 21.17,4.74 31.76,8.03 10.59,3.29 20.08,7.67 29.2,13.14 8.76,5.48 15.7,12.41 21.17,21.17 5.48,8.76 8.03,19.71 8.03,33.22 0,14.23 -4.01,27.38 -11.68,39.42 -8.03,12.05 -20.08,21.54 -36.14,28.84 -16.06,7.3 -36.14,10.95 -60.6,10.95z"/>
    <path class="fil2" d="M2639.18 5797.12l0 -207.33 -81.76 0 0 -48.19 222.67 0 0 48.19 -81.76 0 0 207.33 -59.14 0zm172.66 0l0 -255.52 109.14 0c35.41,0 63.15,8.4 82.86,24.82 19.71,16.43 29.56,39.06 29.56,67.9 0,18.98 -4.38,35.41 -13.5,48.91 -9.12,13.87 -22.27,24.46 -38.69,31.76l56.94 82.13 -63.51 0 -49.28 -71.18c-1.09,0 -1.83,0 -2.92,0l-51.47 0 0 71.18 -59.14 0zm59.14 -118.27l48.18 0c17.89,0 31.76,-4.01 40.88,-12.05 9.12,-7.66 13.5,-18.61 13.5,-32.48 0,-14.24 -4.38,-25.19 -13.5,-32.85 -9.12,-7.66 -23,-11.68 -40.88,-11.68l-48.18 0 0 89.07zm322.69 122.65c-36.14,0 -64.61,-10.22 -85.05,-30.3 -20.44,-20.08 -30.66,-48.91 -30.66,-86.51l0 -143.09 59.13 0 0 140.9c0,24.46 5.11,41.98 14.97,52.57 9.86,10.58 24.09,16.06 41.98,16.06 17.89,0 32.12,-5.48 41.97,-16.06 9.86,-10.59 14.97,-28.11 14.97,-52.57l0 -140.9 58.4 0 0 143.09c0,37.6 -10.22,66.43 -30.66,86.51 -20.44,20.07 -48.91,30.3 -85.05,30.3zm296.41 0c-19.71,0 -37.96,-3.29 -54.76,-9.86 -17.16,-6.57 -31.76,-15.7 -44.17,-27.74 -12.41,-11.68 -21.9,-25.55 -28.84,-41.61 -6.94,-16.06 -10.58,-33.58 -10.58,-52.93 0,-19.35 3.65,-36.87 10.58,-52.93 6.94,-16.06 16.43,-29.93 29.2,-41.98 12.41,-11.68 27.01,-20.81 43.81,-27.38 16.79,-6.57 35.04,-9.86 55.12,-9.86 22.27,0 42.34,4.02 60.23,11.68 17.89,7.67 32.85,18.98 44.9,33.58l-37.96 35.04c-17.52,-20.08 -39.06,-29.93 -64.25,-29.93 -16.06,0 -30.3,3.29 -42.34,10.22 -12.41,6.94 -21.9,16.79 -28.84,28.84 -6.94,12.41 -10.58,26.65 -10.58,42.71 0,16.06 3.65,30.3 10.58,42.34 6.94,12.41 16.43,21.9 28.84,28.84 12.04,6.94 26.28,10.58 42.34,10.58 25.19,0 46.73,-10.22 64.25,-30.3l37.96 35.04c-12.04,14.97 -27.01,26.28 -44.9,33.95 -17.89,7.67 -38.33,11.68 -60.59,11.68z"/>
    <path class="fil2" d="M3680.23 5797.12l0 -207.33 -81.76 0 0 -48.19 222.67 0 0 48.19 -81.76 0 0 207.33 -59.14 0zm172.66 0l0 -255.52 59.14 0 0 255.52 -59.14 0zm243.48 4.38c-20.08,0 -38.7,-3.29 -55.49,-9.86 -17.15,-6.57 -31.76,-15.7 -44.53,-27.74 -12.78,-12.05 -22.27,-25.92 -29.2,-41.98 -6.94,-16.06 -10.58,-33.58 -10.58,-52.56 0,-18.98 3.65,-36.5 10.58,-52.57 6.94,-16.06 16.43,-29.93 29.2,-41.98 12.78,-12.04 27.38,-21.17 44.53,-27.74 16.79,-6.57 35.41,-9.86 55.49,-9.86 20.07,0 38.69,3.29 55.85,9.86 16.79,6.57 31.39,15.7 44.17,27.38 12.78,12.04 22.63,25.92 29.57,41.98 6.94,16.43 10.22,33.95 10.22,52.93 0,18.98 -3.28,36.5 -10.22,52.56 -6.94,16.43 -16.79,30.3 -29.57,41.98 -12.78,12.04 -27.38,21.17 -44.17,27.74 -17.15,6.57 -35.77,9.86 -55.85,9.86zm0 -50.37c14.97,0 28.84,-3.65 40.88,-10.58 12.05,-6.94 21.54,-16.43 28.47,-28.84 6.94,-12.04 10.58,-26.28 10.58,-42.34 0,-16.06 -3.65,-30.3 -10.58,-42.71 -6.94,-12.04 -16.43,-21.9 -28.47,-28.84 -12.04,-6.94 -25.92,-10.22 -40.88,-10.22 -14.97,0 -28.47,3.29 -40.52,10.22 -12.05,6.94 -21.9,16.79 -28.84,28.84 -6.94,12.41 -10.58,26.65 -10.58,42.71 0,16.06 3.65,30.3 10.58,42.34 6.94,12.41 16.79,21.9 28.84,28.84 12.04,6.94 25.55,10.58 40.52,10.58zm184.34 45.99l0 -255.52 48.91 0 127.03 155.5 0 -155.5 58.4 0 0 255.52 -48.55 0 -127.4 -155.5 0 155.5 -58.4 0zm398.24 0l0 -255.52 116.08 0c27.74,0 52.2,5.11 73.37,15.7 21.17,10.58 37.6,25.55 49.65,44.53 12.04,19.35 17.89,41.61 17.89,67.53 0,25.92 -5.84,48.18 -17.89,67.16 -12.05,19.35 -28.47,33.95 -49.65,44.54 -21.17,10.58 -45.63,16.06 -73.37,16.06l-116.08 0zm59.14 -48.55l54.02 0c17.16,0 31.76,-3.29 44.53,-9.86 12.41,-6.21 22.27,-15.33 29.2,-27.38 6.94,-11.68 10.22,-25.55 10.22,-41.98 0,-16.43 -3.29,-30.3 -10.22,-42.34 -6.94,-11.68 -16.79,-20.81 -29.2,-27.38 -12.78,-6.21 -27.38,-9.49 -44.53,-9.49l-54.02 0 0 158.42zm242.38 48.55l0 -255.52 59.14 0 0 255.52 -59.14 0z"/>
    <polygon class="fil2" points="5171.35,5797.12 5061.11,5541.6 5125,5541.6 5202.75,5724.12 5281.59,5541.6 5340.36,5541.6 5229.76,5797.12 "/>
    <path class="fil2" d="M5361.53 5797.12l0 -255.52 59.14 0 0 255.52 -59.14 0zm203.69 4.38c-20.44,0 -40.15,-2.55 -58.77,-8.4 -18.61,-5.48 -33.95,-12.41 -45.26,-21.17l20.07 -44.53c10.59,7.67 23.73,14.24 38.7,18.98 14.97,5.11 30.3,7.67 45.63,7.67 17.52,0 30.3,-2.55 37.96,-7.67 7.66,-5.11 11.31,-11.68 11.31,-19.71 0,-6.94 -2.55,-12.41 -8.03,-16.43 -5.48,-4.01 -12.41,-7.3 -21.17,-9.86 -9.12,-2.55 -18.61,-4.74 -29.2,-7.3 -10.58,-2.19 -20.81,-5.11 -31.39,-8.4 -10.59,-3.29 -20.44,-7.67 -29.2,-13.14 -9.13,-5.48 -16.06,-12.41 -21.54,-21.54 -5.48,-8.76 -8.03,-19.71 -8.03,-33.22 0,-14.6 4.01,-28.11 12.04,-40.15 7.67,-12.04 19.71,-21.53 35.78,-28.84 15.69,-6.94 35.77,-10.59 59.86,-10.59 16.06,0 31.76,1.83 47.45,5.84 15.69,4.01 29.2,9.49 41.25,16.79l-18.25 44.9c-12.04,-6.94 -23.73,-12.04 -35.77,-15.33 -12.04,-3.29 -23.73,-4.75 -35.04,-4.75 -17.52,0 -29.93,2.92 -37.23,8.4 -7.67,5.84 -11.32,12.78 -11.32,20.81 0,6.57 2.55,11.68 8.03,15.7 5.48,4.01 12.41,7.3 21.17,9.86 8.76,2.55 18.62,5.11 29.2,7.3 10.58,2.19 21.17,4.74 31.76,8.03 10.59,3.29 20.08,7.67 29.2,13.14 8.76,5.48 15.7,12.41 21.17,21.17 5.48,8.76 8.03,19.71 8.03,33.22 0,14.23 -4.01,27.38 -11.68,39.42 -8.03,12.05 -20.08,21.54 -36.14,28.84 -16.06,7.3 -36.14,10.95 -60.6,10.95zm148.93 -4.38l0 -255.52 59.14 0 0 255.52 -59.14 0zm243.48 4.38c-20.08,0 -38.7,-3.29 -55.49,-9.86 -17.15,-6.57 -31.76,-15.7 -44.53,-27.74 -12.78,-12.05 -22.27,-25.92 -29.2,-41.98 -6.94,-16.06 -10.58,-33.58 -10.58,-52.56 0,-18.98 3.65,-36.5 10.58,-52.57 6.94,-16.06 16.43,-29.93 29.2,-41.98 12.78,-12.04 27.38,-21.17 44.53,-27.74 16.79,-6.57 35.41,-9.86 55.49,-9.86 20.07,0 38.69,3.29 55.85,9.86 16.79,6.57 31.39,15.7 44.17,27.38 12.78,12.04 22.63,25.92 29.57,41.98 6.94,16.43 10.22,33.95 10.22,52.93 0,18.98 -3.28,36.5 -10.22,52.56 -6.94,16.43 -16.79,30.3 -29.57,41.98 -12.78,12.04 -27.38,21.17 -44.17,27.74 -17.15,6.57 -35.77,9.86 -55.85,9.86zm0 -50.37c14.97,0 28.84,-3.65 40.88,-10.58 12.05,-6.94 21.54,-16.43 28.47,-28.84 6.94,-12.04 10.58,-26.28 10.58,-42.34 0,-16.06 -3.65,-30.3 -10.58,-42.71 -6.94,-12.04 -16.43,-21.9 -28.47,-28.84 -12.04,-6.94 -25.92,-10.22 -40.88,-10.22 -14.97,0 -28.47,3.29 -40.52,10.22 -12.05,6.94 -21.9,16.79 -28.84,28.84 -6.94,12.41 -10.58,26.65 -10.58,42.71 0,16.06 3.65,30.3 10.58,42.34 6.94,12.41 16.79,21.9 28.84,28.84 12.04,6.94 25.55,10.58 40.52,10.58zm184.34 45.99l0 -255.52 48.91 0 127.03 155.5 0 -155.5 58.4 0 0 255.52 -48.55 0 -127.4 -155.5 0 155.5 -58.4 0z"/>
    <path class="fil3" d="M21.63 5249l7828.97 0c11.89,0 21.63,9.73 21.63,21.63l0 0c0,11.89 -9.73,21.63 -21.63,21.63l-7828.97 0c-11.89,0 -21.63,-9.73 -21.63,-21.63l0 -0c0,-11.89 9.73,-21.63 21.63,-21.63z"/>
    <path class="fil4" d="M3176.38 1042.04l-471.89 0 -772.23 0c-223.58,0 -406.53,-182.93 -406.53,-406.53 0,-223.59 182.93,-406.54 406.53,-406.54l772.23 0 2423.3 0c223.6,0 406.53,182.95 406.53,406.54 0,223.6 -182.97,406.53 -406.53,406.53l-1061.38 0c0,838.3 -3.89,1675.91 -3.89,2513.83 0,239.05 -195.57,434.62 -434.61,434.62l-0.01 0c-2.17,0 -4.34,-0.05 -6.5,-0.08 -2.16,0.03 -4.34,0.08 -6.51,0.08l-0.01 0c-239.04,0 -434.61,-195.57 -434.61,-434.62 0,-837.92 -3.89,-1675.53 -3.89,-2513.83z"/>
    <path class="fil4" d="M1292.29 905.23c52.42,26.65 98.77,63.64 136.39,108.22 8.66,9.69 15.24,21.29 24.8,30.05l2491.59 2287.22c176.02,161.57 107.02,498.22 -106.69,605.07l-0.02 0.01c-213.68,106.84 -433.96,60.05 -605.06,-106.69l-1702.19 -1658.64 0 1385.58c0,238.94 -195.51,434.45 -434.45,434.45l-0.01 0c-238.96,0 -434.45,-195.49 -434.45,-434.45l0 -2263.22c0,-320.61 338.82,-547.75 630.09,-387.6z"/>
    <path class="fil4" d="M5661.66 852.56c671.66,0 1244.65,422.1 1468.43,1015.47 16.8,359.41 -536.26,425.84 -777.31,0 -162.28,-202.37 -411.54,-331.97 -691.11,-331.97 -489.03,0 -885.47,396.44 -885.47,885.47 0,489.03 396.44,885.47 885.47,885.47 316.97,0 594.99,-166.59 751.42,-416.95 179.15,-466.74 691.76,-425.84 746.37,0 -199.26,637.65 -794.47,1100.45 -1497.79,1100.45 -866.52,0 -1568.97,-702.45 -1568.97,-1568.97 0,-866.52 702.45,-1568.97 1568.97,-1568.97z"/>
 </g>
</svg>
